PathFileType	4	(X/Y/Z)	/Users/itak/Documents/Research/Walk-IL/dataset/trc/00331_00011.trc
DataRate	CameraRate	NumFrames	NumMarkers	Units	OrigDataRate	OrigDataStartFrame	OrigNumFrames
100.000000	100.000000	4	55	mm	100.000000	0	792
Frame#	Time	RPSI			LPSI			L3			STRN			T10			C7			CLAV			RBAK			LBAK			LSHO			LUPA			LAEL			LAOL			LWTS			LWPS			LFRA			LIFD			LHPS			RSHO			RUPA			RAEL			RAOL			RWTS			RWPS			RFRA			RIFD			RHTS			RHPS			RBHD			LFHD			RFHD			LBHD			LHIP			RHIP			RASI			LASI			LKNE			LTHI			LANK			LTIP			LTOE			LMT1			LMT5			LHEE			RKNE			RTHI			RANK			RTIP			RTOE			RMT1			RMT5			RHEE			LHTS			*53			*54			
		X1	Y1	Z1	X2	Y2	Z2	X3	Y3	Z3	X4	Y4	Z4	X5	Y5	Z5	X6	Y6	Z6	X7	Y7	Z7	X8	Y8	Z8	X9	Y9	Z9	X10	Y10	Z10	X11	Y11	Z11	X12	Y12	Z12	X13	Y13	Z13	X14	Y14	Z14	X15	Y15	Z15	X16	Y16	Z16	X17	Y17	Z17	X18	Y18	Z18	X19	Y19	Z19	X20	Y20	Z20	X21	Y21	Z21	X22	Y22	Z22	X23	Y23	Z23	X24	Y24	Z24	X25	Y25	Z25	X26	Y26	Z26	X27	Y27	Z27	X28	Y28	Z28	X29	Y29	Z29	X30	Y30	Z30	X31	Y31	Z31	X32	Y32	Z32	X33	Y33	Z33	X34	Y34	Z34	X35	Y35	Z35	X36	Y36	Z36	X37	Y37	Z37	X38	Y38	Z38	X39	Y39	Z39	X40	Y40	Z40	X41	Y41	Z41	X42	Y42	Z42	X43	Y43	Z43	X44	Y44	Z44	X45	Y45	Z45	X46	Y46	Z46	X47	Y47	Z47	X48	Y48	Z48	X49	Y49	Z49	X50	Y50	Z50	X51	Y51	Z51	X52	Y52	Z52	X53	Y53	Z53	X54	Y54	Z54	X55	Y55	Z55	

1	0	934.6392211914062	972.23828125	200.9360504150391	936.3229370117188	970.8155517578125	73.03507232666016	933.300537109375	1023.291381835938	141.2704010009766	1153.067260742188	1209.661743164062	125.5584564208984	913.0726928710938	1143.850463867188	131.8844757080078	952.0183715820312	1391.88330078125	113.1650314331055	1109.160522460938	1334.383544921875	120.1900405883789	904.11083984375	1255.02880859375	185.4570159912109	944.7294921875	1353.671997070312	11.10584545135498	1032.221557617188	1371.046508789062	-44.1563606262207	1021.211120605469	1249.08349609375	-110.5375366210938	1050.643920898438	1044.813598632812	-114.2125625610352	981.9260864257812	1031.299194335938	-65.55683898925781	1145.035034179688	804.9760131835938	-48.46223831176758	1115.273315429688	792.4364624023438	-109.3544845581055	1070.05810546875	940.9142456054688	-115.040153503418	1151.884033203125	644.6834716796875	-39.2529182434082	1112.945068359375	722.31201171875	-102.6855773925781	1013.577514648438	1380.194702148438	277.55419921875	1006.805786132812	1314.667846679688	343.4663696289062	1022.810119628906	1045.3583984375	373.7329406738281	971.8377685546875	1039.185424804688	294.7276916503906	1129.939575195312	820.5646362304688	310.4379577636719	1101.349365234375	802.8170776367188	379.5711364746094	1050.359008789062	978.4537353515625	378.1600952148438	1148.949096679688	647.782958984375	313.6383361816406	1161.914184570312	719.2431030273438	321.220947265625	1116.68603515625	719.0874633789062	373.9209594726562	949.3866577148438	1588.029296875	155.2953186035156	1152.898315429688	1622.271850585938	127.6580276489258	1098.24951171875	1622.30810546875	212.8458404541016	1004.373657226562	1578.967041015625	22.91337585449219	1020.2763671875	910.593505859375	-30.09631538391113	1013.074523925781	916.9478149414062	309.9344482421875	1118.312133789062	944.5897827148438	268.8485107421875	1141.705810546875	938.0253295898438	28.05564880371094	1043.33154296875	453.9403076171875	-17.88315963745117	1054.50732421875	592.830322265625	-27.02666854858398	950.1444091796875	40.50968170166016	-8.98130989074707	993.8511352539062	240.4437255859375	-26.21254348754883	1154.925415039062	31.17706108093262	53.62076568603516	1084.677124023438	19.44088554382324	93.2490234375	1075.395385742188	34.50344085693359	-19.12536430358887	915.40771484375	34.56418609619141	57.35886001586914	1021.349060058594	455.1160278320312	294.3497314453125	1078.62939453125	708.1881103515625	312.3016052246094	960.6429443359375	41.84521484375	270.4400329589844	1024.456298828125	335.4344787597656	286.2329711914062	1153.52685546875	32.96824264526367	215.8140563964844	1097.156982421875	29.2696704864502	175.2847900390625	1061.613647460938	28.82405662536621	287.4909057617188	908.9874877929688	42.94738006591797	223.2791442871094	1161.122314453125	727.1943359375	-60.84372711181641	nan	nan	nan	nan	nan	nan	
2	0.01	934.6142578125	972.242919921875	200.9346923828125	936.2838134765625	970.8199462890625	73.03577423095703	933.2579345703125	1023.310180664062	141.2621459960938	1153.040771484375	1209.665649414062	125.5730590820312	913.0777587890625	1143.85791015625	131.8975677490234	951.9996337890625	1391.887451171875	113.1738204956055	1109.133666992188	1334.3857421875	120.2073669433594	904.0997314453125	1255.036010742188	185.4726104736328	944.7188720703125	1353.675659179688	11.11172103881836	1032.203491210938	1371.044555664062	-44.14446640014648	1021.199401855469	1249.079223632812	-110.5283508300781	1050.612060546875	1044.79443359375	-114.1744155883789	981.8861694335938	1031.293090820312	-65.52328491210938	1144.96435546875	804.9785766601562	-48.39882278442383	1115.197875976562	792.4104614257812	-109.2736968994141	1070.026733398438	940.9053955078125	-114.9895553588867	1151.811767578125	644.703857421875	-39.19089126586914	1112.823120117188	722.2459106445312	-102.5601272583008	1013.541809082031	1380.197509765625	277.5663757324219	1006.775451660156	1314.67333984375	343.4759826660156	1022.752624511719	1045.360229492188	373.7350463867188	971.7720947265625	1039.207397460938	294.7706298828125	1129.887817382812	820.5701293945312	310.4792785644531	1101.261474609375	802.8201293945312	379.6128845214844	1050.287353515625	978.4425659179688	378.179931640625	1148.877685546875	647.8080444335938	313.6855773925781	1161.843017578125	719.24365234375	321.2692565917969	1116.67333984375	719.0845336914062	373.8916625976562	949.3648681640625	1588.009521484375	155.359130859375	1152.866333007812	1622.287963867188	127.6471786499023	1098.198608398438	1622.310424804688	212.8740386962891	1004.308349609375	1578.971923828125	22.94972229003906	1020.145690917969	910.6181030273438	-30.12012481689453	1013.0556640625	916.9501342773438	309.937255859375	1118.248901367188	944.5761108398438	268.87158203125	1141.6826171875	938.0221557617188	28.07491493225098	1043.3115234375	453.9443054199219	-17.88257026672363	1054.485961914062	592.8333129882812	-27.02551651000977	950.1441650390625	40.50498580932617	-8.980391502380371	993.8441162109375	240.4448394775391	-26.21201515197754	1154.9248046875	31.17739295959473	53.61937713623047	1084.677001953125	19.44146156311035	93.24922943115234	1075.397216796875	34.50304412841797	-19.12256240844727	915.406494140625	34.55942535400391	57.35696792602539	1021.307006835938	455.1437683105469	294.380615234375	1078.652954101562	708.1744995117188	312.2797546386719	960.642333984375	41.84621047973633	270.4451293945312	1024.42822265625	335.4270935058594	286.2539672851562	1153.525146484375	32.97429656982422	215.8165283203125	1097.155639648438	29.27262115478516	175.2864685058594	1061.614013671875	28.82422828674316	287.4904479980469	908.9860229492188	42.94365310668945	223.2816925048828	1161.012939453125	727.0765991210938	-60.71355056762695	nan	nan	nan	nan	nan	nan	
3	0.02	934.5843505859375	972.2490844726562	200.9349212646484	936.2258911132812	970.827392578125	73.03380584716797	933.1995849609375	1023.335998535156	141.2496643066406	1153.004272460938	1209.670776367188	125.5941619873047	913.0841064453125	1143.868286132812	131.9148559570312	951.9741821289062	1391.892822265625	113.1865005493164	1109.095947265625	1334.38720703125	120.2322998046875	904.08447265625	1255.04638671875	185.4951629638672	944.705078125	1353.68017578125	11.1207275390625	1032.179443359375	1371.041015625	-44.12726974487305	1021.184509277344	1249.07470703125	-110.5157089233398	1050.568237304688	1044.769897460938	-114.1233139038086	981.832763671875	1031.287231445312	-65.47887420654297	1144.874267578125	804.9849243164062	-48.32004928588867	1115.095336914062	792.376953125	-109.1703948974609	1069.983154296875	940.8949584960938	-114.9244537353516	1151.71484375	644.7332763671875	-39.11332702636719	1112.663696289062	722.1668090820312	-102.4022750854492	1013.494567871094	1380.20166015625	277.5830078125	1006.731079101562	1314.680908203125	343.4884338378906	1022.678039550781	1045.36572265625	373.7382202148438	971.6857299804688	1039.235473632812	294.8256530761719	1129.820678710938	820.5787353515625	310.5315246582031	1101.150756835938	802.8244018554688	379.6664123535156	1050.189453125	978.4259643554688	378.2064819335938	1148.791381835938	647.841064453125	313.7442321777344	1161.754638671875	719.246826171875	321.328857421875	1116.656127929688	719.0774536132812	373.8587341308594	949.3289794921875	1587.982177734375	155.4434814453125	1152.824096679688	1622.310302734375	127.6324768066406	1098.134033203125	1622.3154296875	212.9092407226562	1004.225219726562	1578.978881835938	22.99592971801758	1019.982360839844	910.6478271484375	-30.14930152893066	1013.032592773438	916.9520874023438	309.9403686523438	1118.16748046875	944.5606689453125	268.8998413085938	1141.650024414062	938.013916015625	28.10520935058594	1043.286865234375	453.9498596191406	-17.88127899169922	1054.461059570312	592.836181640625	-27.02360916137695	950.1441040039062	40.49972534179688	-8.979310989379883	993.835205078125	240.4467010498047	-26.21118927001953	1154.923828125	31.17783737182617	53.617431640625	1084.676879882812	19.44211196899414	93.24946594238281	1075.399169921875	34.50273895263672	-19.1190071105957	915.4053955078125	34.55420303344727	57.3547248840332	1021.252136230469	455.18017578125	294.4212951660156	1078.680541992188	708.156982421875	312.2526245117188	960.6414184570312	41.84614944458008	270.451171875	1024.392333984375	335.4169921875	286.2804870605469	1153.523071289062	32.98175430297852	215.8195037841797	1097.154174804688	29.2761344909668	175.2884979248047	1061.614013671875	28.8243350982666	287.4900512695312	908.984130859375	42.93927001953125	223.2848205566406	1160.871215820312	726.9327392578125	-60.55603408813477	nan	nan	nan	nan	nan	nan	
4	0.03	934.5518188476562	972.2564697265625	200.9378967285156	936.1471557617188	970.8386840820312	73.02767944335938	933.12646484375	1023.368225097656	141.23291015625	1152.957885742188	1209.677001953125	125.6221694946289	913.0905151367188	1143.88134765625	131.9358215332031	951.9421997070312	1391.8994140625	113.2033004760742	1109.046997070312	1334.387451171875	120.2652893066406	904.0648803710938	1255.059814453125	185.5248107910156	944.6885375976562	1353.68505859375	11.13329315185547	1032.149780273438	1371.03564453125	-44.10435104370117	1021.166870117188	1249.070434570312	-110.4996185302734	1050.512329101562	1044.741455078125	-114.0600280761719	981.7664184570312	1031.283447265625	-65.42470550537109	1144.768676757812	804.9962158203125	-48.23030853271484	1114.966674804688	792.337158203125	-109.0489120483398	1069.927001953125	940.8838500976562	-114.8472595214844	1151.593994140625	644.7705078125	-39.02325820922852	1112.471313476562	722.0804443359375	-102.2200393676758	1013.436828613281	1380.20703125	277.60400390625	1006.671691894531	1314.690307617188	343.5032348632812	1022.589050292969	1045.375732421875	373.7425231933594	971.5816650390625	1039.26806640625	294.8901977539062	1129.740356445312	820.5908813476562	310.5923461914062	1101.0224609375	802.8297119140625	379.7295837402344	1050.06689453125	978.4034423828125	378.2393493652344	1148.6962890625	647.8811645507812	313.8109741210938	1161.654052734375	719.2536010742188	321.3963317871094	1116.634033203125	719.0651245117188	373.8258361816406	949.2764892578125	1587.947265625	155.5462341308594	1152.772583007812	1622.339111328125	127.6142807006836	1098.058471679688	1622.323974609375	212.9494934082031	1004.127685546875	1578.98779296875	23.04996871948242	1019.796264648438	910.6806030273438	-30.18168067932129	1013.006896972656	916.952880859375	309.9434204101562	1118.07080078125	944.5451049804688	268.9314575195312	1141.607788085938	937.9993286132812	28.14763450622559	1043.259033203125	453.9569396972656	-17.87905883789062	1054.434692382812	592.8384399414062	-27.02095985412598	950.1444091796875	40.49445724487305	-8.97818660736084	993.8247680664062	240.4494171142578	-26.21001052856445	1154.922729492188	31.17836761474609	53.61494064331055	1084.6767578125	19.44274139404297	93.24971008300781	1075.40087890625	34.50263214111328	-19.11480903625488	915.4046630859375	34.54904937744141	57.35227966308594	1021.186096191406	455.2237243652344	294.4702758789062	1078.709716796875	708.1361083984375	312.2216796875	960.6400146484375	41.8444709777832	270.4576721191406	1024.350219726562	335.4044494628906	286.3113098144531	1153.520629882812	32.99011611938477	215.8227996826172	1097.152587890625	29.27990913391113	175.2906951904297	1061.613525390625	28.82441902160645	287.4898071289062	908.981689453125	42.93457412719727	223.2883453369141	1160.70166015625	726.7731323242188	-60.38228607177734	nan	nan	nan	nan	nan	nan	
